# xmcd CD database file
#
# Track frame offsets:
#	150
#	13200
#	27020
#	43518
#	56363
#	75258
#	89328
#	106945
#	126048
#	137898
#	150728
#	173340
#
# Disc length: 2531 seconds
#
# Revision: 1
# Processed by: cddbd v1.5.2PL0 Copyright (c) Steve Scherf et al.
# Submitted via: CDex 1.70beta2
#
DISCID=8409e10c
DTITLE=Mungo Jerry - Mungo Jerry
DYEAR=2003
DGENRE=Mungo Jerry
TTITLE0=Baby Let's Play House (A.Gunter)
TTITLE1=Johnny B. Badde (Ray Dorset)
TTITLE2=San Francisco Bay Blues (Jesse Fuller)
TTITLE3=Sad Eyed Joe (Paul King)
TTITLE4=Maggie (Ray Dorset)
TTITLE5=Peace In The Country (Ray Dorset)
TTITLE6=See Me (Ray Dorset)
TTITLE7=Movin' On (Paul King)
TTITLE8=My Friend (Ray Dorset)
TTITLE9=Mother *!*!*! Boogie (Ray Dorset-Paul King-Colin Earl-Mike Cole)
TTITLE10=Tramp (Paul King)
TTITLE11=Daddie's Brew
EXTD=YEAR: 2003
EXTT0=
EXTT1=
EXTT2=
EXTT3=
EXTT4=
EXTT5=
EXTT6=
EXTT7=
EXTT8=
EXTT9=
EXTT10=
EXTT11=
PLAYORDER=
